<svg xmlns="http://www.w3.org/2000/svg" style="display: none">
  <symbol id="icon-location" width="18" height="22" viewBox="0 0 18 22" fill="none" xmlns="http://www.w3.org/2000/svg">
    <path d="M9 21.7279L2.636 15.3639C1.37734 14.1052 0.520187 12.5016 0.172928 10.7558C-0.17433 9.00995 0.00390685 7.20035 0.685099 5.55582C1.36629 3.91129 2.51984 2.50569 3.99988 1.51677C5.47992 0.527838 7.21998 0 9 0C10.78 0 12.5201 0.527838 14.0001 1.51677C15.4802 2.50569 16.6337 3.91129 17.3149 5.55582C17.9961 7.20035 18.1743 9.00995 17.8271 10.7558C17.4798 12.5016 16.6227 14.1052 15.364 15.3639L9 21.7279ZM13.95 13.9499C14.9289 12.9709 15.5955 11.7236 15.8656 10.3658C16.1356 9.00795 15.9969 7.60052 15.4671 6.32148C14.9373 5.04244 14.04 3.94923 12.8889 3.18009C11.7378 2.41095 10.3844 2.00043 9 2.00043C7.61557 2.00043 6.26222 2.41095 5.11109 3.18009C3.95996 3.94923 3.06275 5.04244 2.53292 6.32148C2.00308 7.60052 1.86442 9.00795 2.13445 10.3658C2.40449 11.7236 3.07111 12.9709 4.05 13.9499L9 18.8999L13.95 13.9499ZM9 10.9999C8.46957 10.9999 7.96086 10.7892 7.58579 10.4141C7.21072 10.0391 7 9.53035 7 8.99992C7 8.46949 7.21072 7.96078 7.58579 7.58571C7.96086 7.21064 8.46957 6.99992 9 6.99992C9.53044 6.99992 10.0391 7.21064 10.4142 7.58571C10.7893 7.96078 11 8.46949 11 8.99992C11 9.53035 10.7893 10.0391 10.4142 10.4141C10.0391 10.7892 9.53044 10.9999 9 10.9999Z" fill="currentColor"/>
  </symbol>
  <symbol id="icon-phone" width="18" height="18" viewBox="0 0 18 18" fill="none">
    <path d="M3.54 2C3.6 2.89 3.75 3.76 3.99 4.59L2.79 5.79C2.38 4.59 2.12 3.32 2.03 2H3.54ZM13.4 14.02C14.25 14.26 15.12 14.41 16 14.47V15.96C14.68 15.87 13.41 15.61 12.2 15.21L13.4 14.02ZM4.5 0H1C0.45 0 0 0.45 0 1C0 10.39 7.61 18 17 18C17.55 18 18 17.55 18 17V13.51C18 12.96 17.55 12.51 17 12.51C15.76 12.51 14.55 12.31 13.43 11.94C13.33 11.9 13.22 11.89 13.12 11.89C12.86 11.89 12.61 11.99 12.41 12.18L10.21 14.38C7.38 12.93 5.06 10.62 3.62 7.79L5.82 5.59C6.1 5.31 6.18 4.92 6.07 4.57C5.7 3.45 5.5 2.25 5.5 1C5.5 0.45 5.05 0 4.5 0Z" fill="currentColor"/>
  </symbol>
  <symbol id="burger-menu" viewBox="0 0 60 20" fill="#F7F5F9" >
  <rect width="60" height="2" fill="#F7F5F9"/>
  <rect y="9" width="60" height="2" fill="#F7F5F9"/>
  <rect y="18" width="60" height="2" fill="#F7F5F9"/>
  </symbol>
  <symbol id="time" viewBox="0 0 14 14" fill="none">
  <g clip-path="url(#clip0_time)">
    <path d="M7.00002 12.8334C3.77827 12.8334 1.16669 10.2218 1.16669 7.00008C1.16669 3.77833 3.77827 1.16675 7.00002 1.16675C10.2218 1.16675 12.8334 3.77833 12.8334 7.00008C12.8334 10.2218 10.2218 12.8334 7.00002 12.8334ZM7.00002 11.6667C8.2377 11.6667 9.42468 11.1751 10.2999 10.2999C11.175 9.42474 11.6667 8.23776 11.6667 7.00008C11.6667 5.7624 11.175 4.57542 10.2999 3.70025C9.42468 2.82508 8.2377 2.33341 7.00002 2.33341C5.76234 2.33341 4.57536 2.82508 3.70019 3.70025C2.82502 4.57542 2.33335 5.7624 2.33335 7.00008C2.33335 8.23776 2.82502 9.42474 3.70019 10.2999C4.57536 11.1751 5.76234 11.6667 7.00002 11.6667V11.6667ZM7.58335 7.00008H9.91669V8.16675H6.41669V4.08341H7.58335V7.00008Z" fill="#F7F5F9"/>
  </g>
  <defs>
    <clipPath id="clip0_time">
      <rect width="14" height="14" fill="white"/>
    </clipPath>
  </defs>
</symbol>
<symbol id="key" viewBox="0 0 14 14" fill="none">
  <path fill-rule="evenodd" clip-rule="evenodd" d="M11.8375 0.754395L12.6624 1.57935L11.9082 2.33354L13.6582 4.08354L10.7916 6.95017L9.0416 5.20016L7.43951 6.80225C7.61886 7.04482 7.76904 7.30848 7.88643 7.5879C8.08011 8.04893 8.18069 8.54372 8.18236 9.04379C8.18404 9.54385 8.08678 10.0393 7.89619 10.5016C7.70559 10.964 7.42543 11.384 7.07183 11.7376C6.71823 12.0912 6.29818 12.3714 5.83586 12.562C5.37354 12.7526 4.87808 12.8498 4.37802 12.8481C3.87795 12.8465 3.38316 12.7459 2.92213 12.5522C2.46109 12.3585 2.04293 12.0755 1.6917 11.7196L1.68733 11.7151C0.996645 11 0.61449 10.0422 0.623129 9.04806C0.631768 8.0539 1.03053 7.1029 1.73354 6.39989C2.43654 5.69689 3.38754 5.29812 4.3817 5.28948C5.18252 5.28252 5.95973 5.52915 6.60551 5.98634L11.8375 0.754395ZM11.0833 3.1585L9.86656 4.37521L10.7916 5.30025L12.0083 4.08354L11.0833 3.1585ZM6.26597 7.21963L6.23827 7.19288C5.74319 6.71471 5.08011 6.45012 4.39184 6.45611C3.70358 6.46209 3.04519 6.73816 2.5585 7.22485C2.0718 7.71155 1.79573 8.36993 1.78975 9.0582C1.78378 9.74543 2.04756 10.4076 2.52437 10.9024C2.76707 11.1478 3.05578 11.3429 3.374 11.4766C3.69318 11.6107 4.03573 11.6803 4.38193 11.6815C4.72812 11.6826 5.07113 11.6153 5.3912 11.4834C5.71127 11.3514 6.00207 11.1574 6.24687 10.9126C6.49167 10.6678 6.68563 10.377 6.81758 10.057C6.94953 9.7369 7.01686 9.39389 7.0157 9.0477C7.01454 8.7015 6.94491 8.35895 6.81082 8.03977C6.68251 7.73435 6.4976 7.4561 6.26597 7.21963Z" fill="#F7F5F9"/>
</symbol>
<symbol id="players" viewBox="0 0 14 14" fill="none">
  <path d="M11.6666 13.4167H10.5V12.2501C10.5 11.786 10.3156 11.3408 9.98742 11.0126C9.65923 10.6845 9.21411 10.5001 8.74998 10.5001H5.24998C4.78585 10.5001 4.34073 10.6845 4.01254 11.0126C3.68435 11.3408 3.49998 11.786 3.49998 12.2501V13.4167H2.33331V12.2501C2.33331 11.4765 2.6406 10.7347 3.18758 10.1877C3.73457 9.64071 4.47643 9.33341 5.24998 9.33341H8.74998C9.52353 9.33341 10.2654 9.64071 10.8124 10.1877C11.3594 10.7347 11.6666 11.4765 11.6666 12.2501V13.4167ZM6.99998 8.16675C6.54035 8.16675 6.08523 8.07622 5.66059 7.90033C5.23595 7.72443 4.85011 7.46663 4.52511 7.14162C4.2001 6.81662 3.94229 6.43078 3.7664 6.00614C3.59051 5.5815 3.49998 5.12637 3.49998 4.66675C3.49998 4.20712 3.59051 3.752 3.7664 3.32736C3.94229 2.90272 4.2001 2.51688 4.52511 2.19187C4.85011 1.86687 5.23595 1.60906 5.66059 1.43317C6.08523 1.25728 6.54035 1.16675 6.99998 1.16675C7.92824 1.16675 8.81848 1.5355 9.47485 2.19187C10.1312 2.84825 10.5 3.73849 10.5 4.66675C10.5 5.59501 10.1312 6.48524 9.47485 7.14162C8.81848 7.798 7.92824 8.16675 6.99998 8.16675V8.16675ZM6.99998 7.00008C7.61882 7.00008 8.21231 6.75425 8.6499 6.31666C9.08748 5.87908 9.33331 5.28559 9.33331 4.66675C9.33331 4.04791 9.08748 3.45442 8.6499 3.01683C8.21231 2.57925 7.61882 2.33341 6.99998 2.33341C6.38114 2.33341 5.78765 2.57925 5.35006 3.01683C4.91248 3.45442 4.66665 4.04791 4.66665 4.66675C4.66665 5.28559 4.91248 5.87908 5.35006 6.31666C5.78765 6.75425 6.38114 7.00008 6.99998 7.00008V7.00008Z" fill="#F7F5F9"/>
  </symbol>
</svg>