<svg xmlns="http://www.w3.org/2000/svg" style="display: none">
  <symbol id="icon-location" width="18" height="22" viewBox="0 0 18 22" fill="none" xmlns="http://www.w3.org/2000/svg">
    <path d="M9 21.7279L2.636 15.3639C1.37734 14.1052 0.520187 12.5016 0.172928 10.7558C-0.17433 9.00995 0.00390685 7.20035 0.685099 5.55582C1.36629 3.91129 2.51984 2.50569 3.99988 1.51677C5.47992 0.527838 7.21998 0 9 0C10.78 0 12.5201 0.527838 14.0001 1.51677C15.4802 2.50569 16.6337 3.91129 17.3149 5.55582C17.9961 7.20035 18.1743 9.00995 17.8271 10.7558C17.4798 12.5016 16.6227 14.1052 15.364 15.3639L9 21.7279ZM13.95 13.9499C14.9289 12.9709 15.5955 11.7236 15.8656 10.3658C16.1356 9.00795 15.9969 7.60052 15.4671 6.32148C14.9373 5.04244 14.04 3.94923 12.8889 3.18009C11.7378 2.41095 10.3844 2.00043 9 2.00043C7.61557 2.00043 6.26222 2.41095 5.11109 3.18009C3.95996 3.94923 3.06275 5.04244 2.53292 6.32148C2.00308 7.60052 1.86442 9.00795 2.13445 10.3658C2.40449 11.7236 3.07111 12.9709 4.05 13.9499L9 18.8999L13.95 13.9499ZM9 10.9999C8.46957 10.9999 7.96086 10.7892 7.58579 10.4141C7.21072 10.0391 7 9.53035 7 8.99992C7 8.46949 7.21072 7.96078 7.58579 7.58571C7.96086 7.21064 8.46957 6.99992 9 6.99992C9.53044 6.99992 10.0391 7.21064 10.4142 7.58571C10.7893 7.96078 11 8.46949 11 8.99992C11 9.53035 10.7893 10.0391 10.4142 10.4141C10.0391 10.7892 9.53044 10.9999 9 10.9999Z" fill="currentColor"/>
  </symbol>
  <symbol id="icon-phone" width="18" height="18" viewBox="0 0 18 18" fill="none">
    <path d="M3.54 2C3.6 2.89 3.75 3.76 3.99 4.59L2.79 5.79C2.38 4.59 2.12 3.32 2.03 2H3.54ZM13.4 14.02C14.25 14.26 15.12 14.41 16 14.47V15.96C14.68 15.87 13.41 15.61 12.2 15.21L13.4 14.02ZM4.5 0H1C0.45 0 0 0.45 0 1C0 10.39 7.61 18 17 18C17.55 18 18 17.55 18 17V13.51C18 12.96 17.55 12.51 17 12.51C15.76 12.51 14.55 12.31 13.43 11.94C13.33 11.9 13.22 11.89 13.12 11.89C12.86 11.89 12.61 11.99 12.41 12.18L10.21 14.38C7.38 12.93 5.06 10.62 3.62 7.79L5.82 5.59C6.1 5.31 6.18 4.92 6.07 4.57C5.7 3.45 5.5 2.25 5.5 1C5.5 0.45 5.05 0 4.5 0Z" fill="currentColor"/>
  </symbol>
  <symbol id="burger-menu" viewBox="0 0 60 20" fill="#F7F5F9" >
  <rect width="60" height="2" fill="#F7F5F9"/>
  <rect y="9" width="60" height="2" fill="#F7F5F9"/>
  <rect y="18" width="60" height="2" fill="#F7F5F9"/>
  </symbol>
</svg>